<svg xmlns="http://www.w3.org/2000/svg" id="flag-icons-nz" viewBox="0 0 640 480">
  <defs>
    <path id="nz-star" d="M0-1 .2245-.309.9511-.309.3633.118.5878.809 0 .382-.5878.809-.3633.118-.9511-.309-.2245-.309Z"/>
  </defs>
  <path fill="#012169" d="M0 0h640v480H0z"/>
  <g transform="scale(.5)">
    <path fill="#FFF" d="m75 0 244 181L562 0h78v62L400 241l240 178v61h-80L320 301 81 480H0v-60l239-178L0 64V0z"/>
    <path fill="#C8102E" d="m424 281 216 159v40L369 281zm-184 20 6 35L54 480H0zM640 0v3L391 191l2-44L590 0zM0 0l239 176h-60L0 42z"/>
    <path fill="#FFF" d="M241 0v480h160V0zM0 160v160h640V160z"/>
    <path fill="#C8102E" d="M0 193v96h640v-96zM273 0v480h96V0z"/>
  </g>
  <use href="#nz-star" fill="#fff" transform="translate(480 90) scale(33)"/>
  <use href="#nz-star" fill="#c8102e" transform="translate(480 90) scale(26)"/>
  <use href="#nz-star" fill="#fff" transform="translate(563 168) scale(31)"/>
  <use href="#nz-star" fill="#c8102e" transform="translate(563 168) scale(24)"/>
  <use href="#nz-star" fill="#fff" transform="translate(400 216) scale(31)"/>
  <use href="#nz-star" fill="#c8102e" transform="translate(400 216) scale(24)"/>
  <use href="#nz-star" fill="#fff" transform="translate(480 336) scale(37)"/>
  <use href="#nz-star" fill="#c8102e" transform="translate(480 336) scale(30)"/>
</svg>
